<mxfile host="app.diagrams.net" modified="2024-10-28T20:10:30.263Z" agent="Mozilla/5.0 (Windows NT 10.0; Win64; x64) AppleWebKit/537.36 (KHTML, like Gecko) Chrome/130.0.0.0 Safari/537.36" etag="uP7jZ8AzkBVj8IbBC2L5" version="24.6.4" type="device">
  <diagram name="Page-1" id="e7e014a7-5840-1c2e-5031-d8a46d1fe8dd">
    <mxGraphModel dx="1434" dy="1564" grid="1" gridSize="10" guides="1" tooltips="1" connect="1" arrows="1" fold="1" page="1" pageScale="1" pageWidth="1169" pageHeight="826" background="none" math="0" shadow="0">
      <root>
        <mxCell id="0" />
        <mxCell id="1" parent="0" />
        <mxCell id="KFxJsKmzYqkrhmby2YBg-48" value="" style="rounded=0;whiteSpace=wrap;html=1;" vertex="1" parent="1">
          <mxGeometry x="200" y="-60" width="360" height="140" as="geometry" />
        </mxCell>
        <mxCell id="KFxJsKmzYqkrhmby2YBg-49" value="" style="rounded=0;whiteSpace=wrap;html=1;" vertex="1" parent="1">
          <mxGeometry x="200" y="-60" width="360" height="40" as="geometry" />
        </mxCell>
        <mxCell id="KFxJsKmzYqkrhmby2YBg-50" value="&amp;lt;&amp;lt;Interface&amp;gt;&amp;gt;&lt;div&gt;&lt;b&gt;MailerInterface&lt;/b&gt;&lt;/div&gt;" style="text;html=1;align=center;verticalAlign=middle;whiteSpace=wrap;rounded=0;" vertex="1" parent="1">
          <mxGeometry x="352.5" y="-55" width="60" height="30" as="geometry" />
        </mxCell>
        <mxCell id="KFxJsKmzYqkrhmby2YBg-52" value="+send(sendingOptions:ExtendedMailType ):boolean" style="text;html=1;align=center;verticalAlign=middle;whiteSpace=wrap;rounded=0;" vertex="1" parent="1">
          <mxGeometry x="212.5" y="-20" width="330" height="30" as="geometry" />
        </mxCell>
        <mxCell id="KFxJsKmzYqkrhmby2YBg-54" value="+sendWelcome(sendingOptions:BasicMailType ):boolean" style="text;html=1;align=center;verticalAlign=middle;whiteSpace=wrap;rounded=0;" vertex="1" parent="1">
          <mxGeometry x="217.5" y="10" width="330" height="30" as="geometry" />
        </mxCell>
        <mxCell id="KFxJsKmzYqkrhmby2YBg-55" value="+sendResetPassword(sendingOptions:BasicMailType ):boolean" style="text;html=1;align=center;verticalAlign=middle;whiteSpace=wrap;rounded=0;" vertex="1" parent="1">
          <mxGeometry x="212.5" y="40" width="330" height="30" as="geometry" />
        </mxCell>
        <mxCell id="KFxJsKmzYqkrhmby2YBg-56" value="Mailer" style="swimlane;fontStyle=1;align=center;verticalAlign=top;childLayout=stackLayout;horizontal=1;startSize=26;horizontalStack=0;resizeParent=1;resizeParentMax=0;resizeLast=0;collapsible=1;marginBottom=0;whiteSpace=wrap;html=1;" vertex="1" parent="1">
          <mxGeometry x="200" y="150" width="360" height="160" as="geometry" />
        </mxCell>
        <mxCell id="KFxJsKmzYqkrhmby2YBg-57" value="- mailerClass: MailerInterface" style="text;strokeColor=none;fillColor=none;align=left;verticalAlign=top;spacingLeft=4;spacingRight=4;overflow=hidden;rotatable=0;points=[[0,0.5],[1,0.5]];portConstraint=eastwest;whiteSpace=wrap;html=1;" vertex="1" parent="KFxJsKmzYqkrhmby2YBg-56">
          <mxGeometry y="26" width="360" height="26" as="geometry" />
        </mxCell>
        <mxCell id="KFxJsKmzYqkrhmby2YBg-58" value="" style="line;strokeWidth=1;fillColor=none;align=left;verticalAlign=middle;spacingTop=-1;spacingLeft=3;spacingRight=3;rotatable=0;labelPosition=right;points=[];portConstraint=eastwest;strokeColor=inherit;" vertex="1" parent="KFxJsKmzYqkrhmby2YBg-56">
          <mxGeometry y="52" width="360" height="8" as="geometry" />
        </mxCell>
        <mxCell id="KFxJsKmzYqkrhmby2YBg-59" value="&lt;span style=&quot;text-align: center;&quot;&gt;+send(sendingOptions:ExtendedMailType ):&lt;/span&gt;&lt;span style=&quot;text-align: center;&quot;&gt;boolean&lt;/span&gt;&lt;div&gt;&lt;span style=&quot;text-align: center;&quot;&gt;+sendWelcome(sendingOptions:BasicMailType ):&lt;/span&gt;&lt;span style=&quot;text-align: center; background-color: initial;&quot;&gt;boolean&lt;/span&gt;&lt;/div&gt;&lt;div&gt;&lt;span style=&quot;text-align: center;&quot;&gt;+sendResetPassword(sendingOptions:BasicMailType ):&lt;/span&gt;&lt;span style=&quot;text-align: center; background-color: initial;&quot;&gt;boolean&lt;/span&gt;&lt;/div&gt;" style="text;strokeColor=none;fillColor=none;align=left;verticalAlign=top;spacingLeft=4;spacingRight=4;overflow=hidden;rotatable=0;points=[[0,0.5],[1,0.5]];portConstraint=eastwest;whiteSpace=wrap;html=1;" vertex="1" parent="KFxJsKmzYqkrhmby2YBg-56">
          <mxGeometry y="60" width="360" height="100" as="geometry" />
        </mxCell>
        <mxCell id="KFxJsKmzYqkrhmby2YBg-61" value="" style="endArrow=block;dashed=1;endFill=0;endSize=12;html=1;rounded=0;exitX=0.5;exitY=0;exitDx=0;exitDy=0;entryX=0.5;entryY=1;entryDx=0;entryDy=0;" edge="1" parent="1" source="KFxJsKmzYqkrhmby2YBg-56" target="KFxJsKmzYqkrhmby2YBg-48">
          <mxGeometry width="160" relative="1" as="geometry">
            <mxPoint x="500" y="160" as="sourcePoint" />
            <mxPoint x="660" y="160" as="targetPoint" />
          </mxGeometry>
        </mxCell>
        <mxCell id="KFxJsKmzYqkrhmby2YBg-63" value="" style="endArrow=diamondThin;endFill=0;endSize=24;html=1;rounded=0;entryX=0.392;entryY=0.006;entryDx=0;entryDy=0;entryPerimeter=0;" edge="1" parent="1" target="KFxJsKmzYqkrhmby2YBg-64">
          <mxGeometry width="160" relative="1" as="geometry">
            <mxPoint x="380" y="310" as="sourcePoint" />
            <mxPoint x="190" y="500" as="targetPoint" />
            <Array as="points">
              <mxPoint x="380" y="350" />
              <mxPoint x="151" y="350" />
            </Array>
          </mxGeometry>
        </mxCell>
        <mxCell id="KFxJsKmzYqkrhmby2YBg-64" value="APIMailer" style="swimlane;fontStyle=1;align=center;verticalAlign=top;childLayout=stackLayout;horizontal=1;startSize=26;horizontalStack=0;resizeParent=1;resizeParentMax=0;resizeLast=0;collapsible=1;marginBottom=0;whiteSpace=wrap;html=1;" vertex="1" parent="1">
          <mxGeometry x="10" y="430" width="360" height="126" as="geometry" />
        </mxCell>
        <mxCell id="KFxJsKmzYqkrhmby2YBg-67" value="&lt;span style=&quot;text-align: center;&quot;&gt;+send(sendingOptions:ExtendedMailType ):&lt;/span&gt;&lt;span style=&quot;text-align: center;&quot;&gt;boolean&lt;/span&gt;&lt;div&gt;&lt;span style=&quot;text-align: center;&quot;&gt;+sendWelcome(sendingOptions:BasicMailType ):&lt;/span&gt;&lt;span style=&quot;text-align: center; background-color: initial;&quot;&gt;boolean&lt;/span&gt;&lt;/div&gt;&lt;div&gt;&lt;span style=&quot;text-align: center;&quot;&gt;+sendResetPassword(sendingOptions:BasicMailType ):&lt;/span&gt;&lt;span style=&quot;text-align: center; background-color: initial;&quot;&gt;boolean&lt;/span&gt;&lt;/div&gt;&lt;div&gt;&lt;span style=&quot;text-align: center;&quot;&gt;- createNewTransport(): SMTPTransport&lt;/span&gt;&lt;span style=&quot;text-align: center; background-color: initial;&quot;&gt;&lt;/span&gt;&lt;/div&gt;&lt;div&gt;&lt;span style=&quot;text-align: center;&quot;&gt;- sendProd(options: BasicMailType) :Promise&amp;lt;boolean&amp;gt;&lt;/span&gt;&lt;/div&gt;" style="text;strokeColor=none;fillColor=none;align=left;verticalAlign=top;spacingLeft=4;spacingRight=4;overflow=hidden;rotatable=0;points=[[0,0.5],[1,0.5]];portConstraint=eastwest;whiteSpace=wrap;html=1;" vertex="1" parent="KFxJsKmzYqkrhmby2YBg-64">
          <mxGeometry y="26" width="360" height="100" as="geometry" />
        </mxCell>
        <mxCell id="KFxJsKmzYqkrhmby2YBg-68" value="SMTPMailer" style="swimlane;fontStyle=1;align=center;verticalAlign=top;childLayout=stackLayout;horizontal=1;startSize=26;horizontalStack=0;resizeParent=1;resizeParentMax=0;resizeLast=0;collapsible=1;marginBottom=0;whiteSpace=wrap;html=1;" vertex="1" parent="1">
          <mxGeometry x="460" y="430" width="360" height="160" as="geometry" />
        </mxCell>
        <mxCell id="KFxJsKmzYqkrhmby2YBg-69" value="- from :&amp;nbsp; string" style="text;strokeColor=none;fillColor=none;align=left;verticalAlign=top;spacingLeft=4;spacingRight=4;overflow=hidden;rotatable=0;points=[[0,0.5],[1,0.5]];portConstraint=eastwest;whiteSpace=wrap;html=1;" vertex="1" parent="KFxJsKmzYqkrhmby2YBg-68">
          <mxGeometry y="26" width="360" height="26" as="geometry" />
        </mxCell>
        <mxCell id="KFxJsKmzYqkrhmby2YBg-70" value="" style="line;strokeWidth=1;fillColor=none;align=left;verticalAlign=middle;spacingTop=-1;spacingLeft=3;spacingRight=3;rotatable=0;labelPosition=right;points=[];portConstraint=eastwest;strokeColor=inherit;" vertex="1" parent="KFxJsKmzYqkrhmby2YBg-68">
          <mxGeometry y="52" width="360" height="8" as="geometry" />
        </mxCell>
        <mxCell id="KFxJsKmzYqkrhmby2YBg-71" value="&lt;span style=&quot;text-align: center;&quot;&gt;+send(sendingOptions:ExtendedMailType ):&lt;/span&gt;&lt;span style=&quot;text-align: center;&quot;&gt;boolean&lt;/span&gt;&lt;div&gt;&lt;span style=&quot;text-align: center;&quot;&gt;+sendWelcome(sendingOptions:BasicMailType ):&lt;/span&gt;&lt;span style=&quot;text-align: center; background-color: initial;&quot;&gt;boolean&lt;/span&gt;&lt;/div&gt;&lt;div&gt;&lt;span style=&quot;text-align: center;&quot;&gt;+sendResetPassword(sendingOptions:BasicMailType ):&lt;/span&gt;&lt;span style=&quot;text-align: center; background-color: initial;&quot;&gt;boolean&lt;/span&gt;&lt;/div&gt;&lt;div&gt;&lt;span style=&quot;text-align: center; background-color: initial;&quot;&gt;- renderTemplate(&lt;/span&gt;&lt;span style=&quot;text-align: center; background-color: initial;&quot;&gt;sendingOptions:ExtendedMailType&lt;/span&gt;&lt;span style=&quot;background-color: initial; text-align: center;&quot;&gt;):HTML&lt;/span&gt;&lt;/div&gt;&lt;div&gt;&lt;span style=&quot;background-color: initial; text-align: center;&quot;&gt;- createNewTransport(): SMTPTransport&lt;/span&gt;&lt;/div&gt;" style="text;strokeColor=none;fillColor=none;align=left;verticalAlign=top;spacingLeft=4;spacingRight=4;overflow=hidden;rotatable=0;points=[[0,0.5],[1,0.5]];portConstraint=eastwest;whiteSpace=wrap;html=1;" vertex="1" parent="KFxJsKmzYqkrhmby2YBg-68">
          <mxGeometry y="60" width="360" height="100" as="geometry" />
        </mxCell>
        <mxCell id="KFxJsKmzYqkrhmby2YBg-72" value="" style="endArrow=diamondThin;endFill=0;endSize=24;html=1;rounded=0;exitX=0.494;exitY=1.01;exitDx=0;exitDy=0;exitPerimeter=0;entryX=0.5;entryY=0;entryDx=0;entryDy=0;" edge="1" parent="1" source="KFxJsKmzYqkrhmby2YBg-59" target="KFxJsKmzYqkrhmby2YBg-68">
          <mxGeometry width="160" relative="1" as="geometry">
            <mxPoint x="376" y="393" as="sourcePoint" />
            <mxPoint x="171" y="541" as="targetPoint" />
            <Array as="points">
              <mxPoint x="378" y="350" />
              <mxPoint x="640" y="350" />
            </Array>
          </mxGeometry>
        </mxCell>
        <mxCell id="KFxJsKmzYqkrhmby2YBg-73" value="" style="endArrow=block;dashed=1;endFill=0;endSize=12;html=1;rounded=0;exitX=0.619;exitY=-0.006;exitDx=0;exitDy=0;exitPerimeter=0;" edge="1" parent="1" source="KFxJsKmzYqkrhmby2YBg-68">
          <mxGeometry width="160" relative="1" as="geometry">
            <mxPoint x="500" y="220" as="sourcePoint" />
            <mxPoint x="560" as="targetPoint" />
            <Array as="points">
              <mxPoint x="680" />
            </Array>
          </mxGeometry>
        </mxCell>
        <mxCell id="KFxJsKmzYqkrhmby2YBg-74" value="" style="endArrow=block;dashed=1;endFill=0;endSize=12;html=1;rounded=0;exitX=0.25;exitY=0;exitDx=0;exitDy=0;" edge="1" parent="1" source="KFxJsKmzYqkrhmby2YBg-64">
          <mxGeometry width="160" relative="1" as="geometry">
            <mxPoint x="500" y="220" as="sourcePoint" />
            <mxPoint x="200" y="3" as="targetPoint" />
            <Array as="points">
              <mxPoint x="100" />
            </Array>
          </mxGeometry>
        </mxCell>
      </root>
    </mxGraphModel>
  </diagram>
</mxfile>
